<?xml version="1.0" standalone="no"?><!DOCTYPE svg PUBLIC "-//W3C//DTD SVG 1.1//EN" "http://www.w3.org/Graphics/SVG/1.1/DTD/svg11.dtd"><svg t="1775530873829" class="icon" viewBox="0 0 1024 1024" version="1.1" xmlns="http://www.w3.org/2000/svg" p-id="4344" xmlns:xlink="http://www.w3.org/1999/xlink" width="200" height="200"><path d="M844.308412 658.478214c144.918608 49.470709 177.795107 52.128278 177.795107 52.128278V185.842675A185.830198 185.830198 0 0 0 836.260844 0h-650.418169A185.830198 185.830198 0 0 0 0 185.842675v650.430646A185.830198 185.830198 0 0 0 185.842675 1022.103519h650.430646c91.829613 0 167.900965-66.663807 182.948046-154.188907-28.696754-12.227313-267.004581-113.976021-391.074374-174.788186-88.648016 111.193684-203.023297 178.656009-321.740521 178.668486-200.802417 0-268.975924-179.13013-173.914806-297.036359 20.724047-25.689833 56.008578-50.244273 110.73204-64.006238 85.591188-21.447704 221.875816 13.362706 349.563895 56.332976a722.33473 722.33473 0 0 0 56.694805-141.200507H255.925139v-40.67453h202.923482v-72.827371h-245.793937v-40.674529h245.793937v-103.919681s0-17.467589 17.405205-17.467589h99.190954v121.38727H818.481333v40.674529H575.432303v72.827371h198.381909c-18.989765 79.252949-47.836241 152.217565-83.994152 216.273711 60.213276 22.208792 114.238035 43.219807 154.500829 56.969296z m0 0" fill="#00A0E9" p-id="4345"></path><path d="M260.341944 571.576957c-25.165806 2.49537-72.365728 13.886734-98.167853 37.143581-77.356467 68.759918-31.092309 194.489131 125.479676 194.501608 90.993664 0 181.949898-59.32742 253.379862-154.276245-101.598986-50.581148-187.676772-86.739058-280.729116-77.356467z m0 0" fill="#00A0E9" p-id="4346"></path></svg>